<svg id="Layer_1" data-name="Layer 1" xmlns="http://www.w3.org/2000/svg" xmlns:xlink="http://www.w3.org/1999/xlink" viewBox="0 0 570.63 588.53"><defs><style>.cls-1,.cls-2{fill:none;stroke-miterlimit:10;stroke-width:30px;}.cls-1{stroke:url(#linear-gradient);}.cls-2{stroke:url(#linear-gradient);}</style><linearGradient id="linear-gradient" x1="114.78" y1="175.59" x2="459.32" y2="374.52" gradientUnits="userSpaceOnUse"><stop offset="0.01" stop-color="#597EFF"/><stop offset="0.51" stop-color="#9B59FF"/><stop offset="0.99" stop-color="#FF58DC"/></linearGradient></defs><path class="cls-1" d="M435.31,345.87a150,150,0,0,1-151.1,150c-82.54-.59-149.55-68.67-148.89-151.21a149.29,149.29,0,0,1,28.32-86.51,118.07,118.07,0,0,0,22.67-69.07V92.67a70,70,0,0,1,70,70v82a54.36,54.36,0,0,1-19.83,41.93,76.62,76.62,0,0,0-28,59.25c0,41.48,33.5,75.83,75,76.8a76.81,76.81,0,0,0,50.36-136.32,53.67,53.67,0,0,1-19.52-41.66v-82a70,70,0,0,1,70-70v95.58a120.92,120.92,0,0,0,23,70.35A149.27,149.27,0,0,1,435.31,345.87Z"/><path class="cls-2" d="M314.31,162.67a29,29,0,1,1-58,0"/></svg>